<svg viewBox="0 0 1080 1080" fill="none" xmlns="http://www.w3.org/2000/svg">      <defs>  <filter id="filter" x="-20%" y="-20%" width="140%" height="140%" filterUnits="objectBoundingBox" primitiveUnits="userSpaceOnUse" color-interpolation-filters="linearRGB">    <feMorphology operator="dilate" radius="20 20" in="SourceAlpha" result="morphology"/>    <feFlood flood-color="#ffffff" flood-opacity="1" result="flood"/>    <feComposite in="flood" in2="morphology" operator="in" result="composite"/>    <feMerge result="merge">          <feMergeNode in="composite" result="mergeNode"/>      <feMergeNode in="SourceGraphic" result="mergeNode1"/>      </feMerge>  </filter></defs>      <g id="notion-avatar" filter="url(#filter)">        <g id="notion-avatar-face" fill="#ffffff">      <!--?xml version="1.0" encoding="UTF-8"?-->    <title>Face/ 2</title>    <g id="Face/-2" stroke="none" stroke-width="1" fill-rule="evenodd" stroke-linecap="round" stroke-linejoin="round">        <path d="M532,379 C664.54834,379 772,486.45166 772,619 C772,751.54834 664.54834,899 532,899 C432.699202,899 347.483933,816.242653 310.982017,718.993409 C267.268677,718.448846 232,682.843144 232,639 C232,599.134956 261.158843,566.080325 299.312086,560.00055 C325.599297,455.979213 419.809919,379 532,379 Z M295.858895,624.545187 L304.141105,655.454813" id="Path" stroke="#000000" stroke-width="24"/>    </g>    </g><g id="notion-avatar-nose">      <!--?xml version="1.0" encoding="UTF-8"?-->    <title>Nose/ 7</title>    <g id="Nose/-7" stroke="none" stroke-width="1" fill="none" fill-rule="evenodd" stroke-linecap="round" stroke-linejoin="round">        <path d="M649,600 C669,606.666667 679,620 679,640 C679,660 669,673.333333 649,680" id="Path" stroke="#000000" stroke-width="16"/>    </g>    </g><g id="notion-avatar-mouth">      <!--?xml version="1.0" encoding="UTF-8"?-->    <title>Mouth/ 1</title>    <g id="Mouth/-1" stroke="none" stroke-width="1" fill="none" fill-rule="evenodd" stroke-linecap="round" stroke-linejoin="round">        <path d="M549,759 C575.12979,773.666667 603.12979,781 633,781 C662.87021,781 682.87021,773.666667 693,759" id="Path" stroke="#000000" stroke-width="16"/>    </g>    </g><g id="notion-avatar-eyes">      <!--?xml version="1.0" encoding="UTF-8"?-->    <title>Eyes/ 0</title>    <g id="Eyes/-0" stroke="none" stroke-width="1" fill="none" fill-rule="evenodd">        <path d="M570,516 C583.254834,516 594,526.745166 594,540 C594,553.254834 583.254834,564 570,564 C556.745166,564 546,553.254834 546,540 C546,526.745166 556.745166,516 570,516 Z M708,516 C721.254834,516 732,526.745166 732,540 C732,553.254834 721.254834,564 708,564 C694.745166,564 684,553.254834 684,540 C684,526.745166 694.745166,516 708,516 Z" id="Combined-Shape" fill="#000000"/>    </g>    </g><g id="notion-avatar-eyebrows">      <!--?xml version="1.0" encoding="UTF-8"?-->    <title>Eyebrows/ 10</title>    <g id="Eyebrows/-10" stroke="none" stroke-width="1" fill="none" fill-rule="evenodd" stroke-linecap="round" stroke-linejoin="round">        <path d="M757,487.2 C757,494.4 735.666667,494.4 717,494.4 C698.333333,494.4 661,498 661,494.4 C661,490.8 694.986112,480 717,480 L720.27013,480.0009 C740.767534,480.018 757,480.36 757,487.2 Z M561,480 C583.013888,480 617,490.8 617,494.4 C617,498 579.666667,494.4 561,494.4 C542.333333,494.4 521,494.4 521,487.2 C521,480.36 537.232466,480.018 557.72987,480.0009 Z" id="Combined-Shape" stroke="#000000" stroke-width="16" fill="#000000"/>    </g>    </g><g id="notion-avatar-glasses">      <!--?xml version="1.0" encoding="UTF-8"?-->    <title>Glasses/ 0</title>    <g id="Glasses/-0" stroke="none" stroke-width="1" fill="none" fill-rule="evenodd"/>    </g><g id="notion-avatar-hair">      <!--?xml version="1.0" encoding="UTF-8"?-->    <title>Hairstyle/ 12</title>    <g id="Hairstyle/-12" stroke="none" stroke-width="1" fill="none" fill-rule="evenodd" stroke-linecap="round" stroke-linejoin="round">        <path d="M287.145773,564.824988 L328.116663,564.824988 L366,655 C383.576343,574.554316 392.364515,528.467337 392.364515,516.739062 C392.364515,499.14665 355.591535,476.044745 379.295767,445.522372 C403,415 437.22161,410.877439 476,418 C525,427 543,431 583,429 C609.666667,427.666667 645.666667,418.666667 691,402 C642.333333,341.333333 575,313.333333 489,318 C360,325 288.147856,415.875901 276.122857,447.542242 C268.106191,468.653136 271.780496,507.747385 287.145773,564.824988 Z" id="Path" stroke="#000000" stroke-width="12" fill="#000000"/>    </g>    </g><g id="notion-avatar-accessories">      <!--?xml version="1.0" encoding="UTF-8"?-->    <title>Accessories/ 0</title>    <g id="Accessories/-0" stroke="none" stroke-width="1" fill="none" fill-rule="evenodd"/>    </g><g id="notion-avatar-details">      <!--?xml version="1.0" encoding="UTF-8"?-->    <title>Details/ 0</title>    <g id="Details/-0" stroke="none" stroke-width="1" fill="none" fill-rule="evenodd"/>    </g><g id="notion-avatar-beard">      <!--?xml version="1.0" encoding="UTF-8"?-->    <title>Beard/ 0</title>    <g id="Beard/-0" stroke="none" stroke-width="1" fill="none" fill-rule="evenodd"/>    </g>      </g>      </svg>